<svg width="64" height="80" viewBox="0 0 64 80" fill="none" xmlns="http://www.w3.org/2000/svg">
<path d="M55.5 79.1666C57.5775 79.1666 59.57 78.3413 61.039 76.8723C62.5081 75.4032 63.3334 73.4108 63.3334 71.3333V8.66659C63.3334 6.58906 62.5081 4.59662 61.039 3.12758C59.57 1.65855 57.5775 0.833252 55.5 0.833252H32V28.2499L22.2084 22.3749L12.4167 28.2499V0.833252H8.50002C6.42249 0.833252 4.43005 1.65855 2.96102 3.12758C1.49198 4.59662 0.666687 6.58906 0.666687 8.66659V71.3333C0.666687 73.4108 1.49198 75.4032 2.96102 76.8723C4.43005 78.3413 6.42249 79.1666 8.50002 79.1666H55.5Z" fill="#E66262"/>
</svg>
