<svg width="341" height="244" viewBox="0 0 341 244" fill="none" xmlns="http://www.w3.org/2000/svg">
<path d="M162.892 7.56354C169.892 -1.43609 170.892 -0.935975 178.892 7.56336L249.892 104.564L252.892 109.564L255.392 115.064L258.892 124.064C264.392 139.564 268.392 160.564 256.892 188.564C266.392 189.564 277.292 194.364 278.892 197.564C283.558 196.397 296.5 197 299.5 202L296.892 205.064H290.392V206.564C302.392 208.064 305.392 225.064 286.892 213.564L290.392 220.5C287.058 222.5 274.392 221.564 274.892 214.564L273.892 210.064V205.064C271.892 201.564 266.322 199.541 260.892 198.064C256.892 197.564 252.892 197.564 251.392 198.064C230.892 224.064 219.392 232.064 203.892 238.064C192.096 242.63 183.892 243.064 163.892 243.064C147.892 241.564 154.392 242.564 144.392 240.064C124.333 235.048 107.971 219.875 111.631 221.773C95.9036 211.585 86.6837 193.056 78.8038 173.857C77.3038 162.191 76.426 138.564 79.226 130.564C72.8927 127.064 60.1918 119.064 57.3918 113.064C54.5918 107.064 55.7254 111.064 56.8921 113.064C50.5588 112.897 38.5921 110.064 37.3921 104.064C35.3921 94.0642 40.892 78.564 57.3918 84.064C57.7252 85.3974 59.092 88.6637 61.892 87.0637L64.892 86.064C68.892 87.0637 69.5676 89.7808 68.892 98.564C68.392 105.064 62.8919 111.397 64.892 109.064L81.892 122.564L88.892 109.064L97.392 95.564L120.892 62.564L162.892 7.56354Z" fill="black"/>
<path d="M274.892 214.564C274.392 221.564 287.058 222.5 290.392 220.5L286.892 213.564C305.392 225.064 302.392 208.064 290.392 206.564V205.064H296.892L299.5 202C296.5 197 283.558 196.397 278.892 197.564C277.292 194.364 266.392 189.564 256.892 188.564C268.392 160.564 264.392 139.564 258.892 124.064L255.392 115.064L252.892 109.564L249.892 104.564L178.892 7.56336C170.892 -0.935975 169.892 -1.43609 162.892 7.56354L120.892 62.564L97.392 95.564L88.892 109.064L81.892 122.564L64.892 109.064C62.8919 111.397 68.392 105.064 68.892 98.564C69.5676 89.7808 68.892 87.0637 64.892 86.064L61.892 87.0637C59.092 88.6637 57.7252 85.3974 57.3918 84.064C40.892 78.564 35.3921 94.0642 37.3921 104.064C38.5921 110.064 50.5588 112.897 56.8921 113.064C55.7254 111.064 54.5918 107.064 57.3918 113.064C60.1918 119.064 72.8927 127.064 79.226 130.564C76.426 138.564 77.3038 162.191 78.8038 173.857C86.8921 193.564 96.3921 212.564 112.892 222.564C105.392 217.397 122.737 234.649 144.392 240.064C154.392 242.564 147.892 241.564 163.892 243.064C183.892 243.064 192.096 242.63 203.892 238.064C219.392 232.064 230.892 224.064 251.392 198.064C252.892 197.564 256.892 197.564 260.892 198.064C266.322 199.541 271.892 201.564 273.892 205.064V210.064L274.892 214.564ZM274.892 214.564C275.496 206.1 273.392 209.564 274.892 214.564Z" stroke="black"/>
<path d="M174.684 18.8993C169.286 10.0982 168.786 15.0981 165.286 18.8991L107.184 95.3994C80.7858 137.598 86.6295 140.677 85.2858 152.098C83.2857 169.098 92.2858 186.598 96.6835 194.899C115.786 219.098 130.684 227.066 146.184 232.899C162.184 240.499 202.786 234.098 209.286 227.098C230.286 216.598 239.286 199.098 244.684 191.899C259.786 174.098 256.286 125.098 242.786 111.598L210.786 64.5981L174.684 18.8993Z" fill="#E66262"/>
<path d="M179 24.5001C173 16.0002 173 18.9998 169.708 25.7375L112 99.5002C86.7785 140.307 94.5569 143.499 93.2731 154.543C91.362 170.982 99.9612 187.905 104.163 195.933C122.414 219.333 136.648 227.038 151.457 232.679C166.744 240.029 205.537 233.838 211.748 227.069C231.812 216.916 240.411 199.993 245.568 193.032C259.998 175.817 259.398 129.055 246.5 116L214.5 70L198 47L179 24.5001Z" fill="#F08E8D"/>
<path d="M156.163 163.065C151.663 156.065 145.5 160.063 148.5 167.063C168.5 193.563 189 175.064 192.5 167.064C194 157.064 187.843 158.456 184.164 164.065C174 179.564 158.5 168.564 156.163 163.065Z" fill="black" stroke="black"/>
<rect x="110.5" y="161.564" width="23" height="15" rx="7.5" fill="#F4B5B5"/>
<rect x="206.5" y="161.564" width="23" height="15" rx="7.5" fill="#F4B5B5"/>
<circle cx="136" cy="136.064" r="17.5" fill="black"/>
<circle cx="137.5" cy="130.564" r="6" fill="white"/>
<circle cx="203" cy="136.064" r="17.5" fill="black"/>
<circle cx="204.5" cy="130.564" r="6" fill="white"/>
<rect x="133.5" y="78.9121" width="40" height="12" rx="6" transform="rotate(-53 133.5 78.9121)" fill="white"/>
<rect x="116.5" y="103.509" width="20" height="12" rx="6" transform="rotate(-53 116.5 103.509)" fill="white"/>
<circle cx="15.5" cy="139.564" r="15" fill="#E66262"/>
<circle cx="82.5" cy="43.564" r="23" fill="#FFEEE6"/>
<circle cx="286" cy="92.064" r="18.5" fill="#EFD1C4"/>
<circle cx="65.5" cy="214.564" r="17" fill="#E66262"/>
<circle cx="323.5" cy="168.564" r="17" fill="#FFEEE6"/>
<circle cx="236.5" cy="27.564" r="13" fill="#EFD1C4"/>
<circle cx="258.5" cy="60.564" r="5" fill="#E66262"/>
<circle cx="30.5" cy="187.564" r="7" fill="#FFEEE6"/>
</svg>
